<svg width="2153" height="645" viewBox="0 0 2153 645" fill="none" xmlns="http://www.w3.org/2000/svg">
<path d="M297.031 107.496C313.527 105.284 355.576 107.323 369.425 117.097C368.937 123.025 355.957 127.362 350.884 129.699C302.306 152.078 262.238 186.681 239.877 236.002C217.414 285.616 215.857 342.181 235.551 392.955C262.047 462.131 311.056 495.477 375.93 524.037L375.781 526.582C366.326 534.996 345.212 536.484 332.902 537.517C278.001 542.554 224.452 523.391 182.052 488.934C136.342 451.125 107.592 396.644 102.18 337.569C96.8418 281.567 113.799 225.72 149.376 182.141C186.316 137.645 239.981 112.643 297.031 107.496Z" fill="#8754D2"/>
<path d="M423.657 163.939C433.442 162.608 457.229 161.17 465.339 166.723C465.753 167.717 466.53 168.631 466.58 169.709C466.688 172.058 464.267 175.112 462.737 176.779C455.598 184.558 445.398 190.679 437.182 197.405C412.46 217.798 393.993 244.755 383.903 275.175C363.299 335.557 384.201 400.857 432.225 441.723C439.742 448.121 463.204 461.554 466.798 468.806L464.77 471.851C454.217 476.984 443.195 476.159 431.748 476.121C405.252 472.908 381.998 464.456 360.149 448.868C325.889 424.274 302.908 386.977 296.35 345.316C289.762 301.853 300.89 257.563 327.243 222.377C350.554 190.962 384.817 169.518 423.657 163.939Z" fill="#8754D2"/>
<path d="M487.127 241.043C493.263 240.519 500.727 240.221 506.702 241.829C509.715 242.638 508.72 241.879 510.128 244.365C494.802 260.516 484.406 278.245 481.2 300.513C478.3 320.65 479.967 348.245 490.206 366.239C495.556 375.643 503.055 384.515 509.506 393.223L508.137 395.066C501.537 397.221 495.457 397.18 488.619 397.198C488.16 397.075 487.702 396.959 487.246 396.831L484.972 396.176C482.162 395.381 479.339 394.625 476.645 393.482C460.03 386.429 446.764 370.91 439.952 354.488C431.092 333.127 431.822 306.259 440.908 285.014C450.134 263.448 465.874 249.822 487.127 241.043Z" fill="#8754D2"/>
<path d="M656.063 402.44C644.211 402.44 633.564 400.512 624.121 396.658C614.678 392.804 606.632 387.456 599.983 380.615C593.431 373.677 588.372 365.631 584.807 356.477C581.338 347.227 579.604 337.302 579.604 326.703V320.922C579.604 308.877 581.338 297.94 584.807 288.112C588.276 278.187 593.19 269.66 599.55 262.529C605.909 255.399 613.522 249.906 622.386 246.052C631.251 242.198 641.031 240.271 651.727 240.271C662.808 240.271 672.588 242.15 681.068 245.908C689.547 249.569 696.629 254.772 702.314 261.517C708 268.262 712.287 276.356 715.178 285.799C718.069 295.146 719.514 305.504 719.514 316.875V332.918H596.948V306.612H681.935V303.722C681.742 297.651 680.586 292.111 678.466 287.1C676.346 281.993 673.07 277.946 668.638 274.959C664.205 271.876 658.472 270.334 651.438 270.334C645.753 270.334 640.791 271.587 636.551 274.092C632.407 276.501 628.939 279.97 626.144 284.499C623.446 288.931 621.423 294.231 620.074 300.397C618.725 306.564 618.05 313.406 618.05 320.922V326.703C618.05 333.255 618.917 339.326 620.652 344.914C622.483 350.503 625.133 355.369 628.601 359.512C632.167 363.559 636.406 366.739 641.321 369.052C646.331 371.268 652.016 372.376 658.376 372.376C666.373 372.376 673.6 370.834 680.056 367.751C686.608 364.571 692.293 359.898 697.111 353.731L716.334 373.677C713.058 378.495 708.626 383.12 703.037 387.552C697.545 391.985 690.896 395.598 683.091 398.393C675.286 401.091 666.277 402.44 656.063 402.44ZM809.762 370.642L846.185 243.161H886.077L832.454 399.549H808.172L809.762 370.642ZM783.168 243.161L820.024 370.931L821.325 399.549H796.899L743.131 243.161H783.168ZM989.189 402.44C977.337 402.44 966.689 400.512 957.246 396.658C947.803 392.804 939.757 387.456 933.109 380.615C926.557 373.677 921.498 365.631 917.933 356.477C914.464 347.227 912.729 337.302 912.729 326.703V320.922C912.729 308.877 914.464 297.94 917.933 288.112C921.401 278.187 926.316 269.66 932.675 262.529C939.035 255.399 946.647 249.906 955.512 246.052C964.377 242.198 974.157 240.271 984.853 240.271C995.934 240.271 1005.71 242.15 1014.19 245.908C1022.67 249.569 1029.75 254.772 1035.44 261.517C1041.13 268.262 1045.41 276.356 1048.3 285.799C1051.19 295.146 1052.64 305.504 1052.64 316.875V332.918H930.074V306.612H1015.06V303.722C1014.87 297.651 1013.71 292.111 1011.59 287.1C1009.47 281.993 1006.2 277.946 1001.76 274.959C997.331 271.876 991.598 270.334 984.563 270.334C978.878 270.334 973.916 271.587 969.676 274.092C965.533 276.501 962.064 279.97 959.27 284.499C956.572 288.931 954.548 294.231 953.199 300.397C951.85 306.564 951.176 313.406 951.176 320.922V326.703C951.176 333.255 952.043 339.326 953.777 344.914C955.608 350.503 958.258 355.369 961.727 359.512C965.292 363.559 969.532 366.739 974.446 369.052C979.457 371.268 985.142 372.376 991.501 372.376C999.499 372.376 1006.73 370.834 1013.18 367.751C1019.73 364.571 1025.42 359.898 1030.24 353.731L1049.46 373.677C1046.18 378.495 1041.75 383.12 1036.16 387.552C1030.67 391.985 1024.02 395.598 1016.22 398.393C1008.41 401.091 999.402 402.44 989.189 402.44ZM1131.18 275.104V399.549H1093.02V243.161H1129.16L1131.18 275.104ZM1178.73 242.15L1178.15 277.705C1176.03 277.32 1173.63 277.031 1170.93 276.838C1168.33 276.645 1165.87 276.549 1163.56 276.549C1157.68 276.549 1152.52 277.368 1148.09 279.006C1143.66 280.548 1139.95 282.812 1136.96 285.799C1134.07 288.786 1131.85 292.448 1130.31 296.784C1128.77 301.024 1127.9 305.842 1127.71 311.238L1119.47 310.226C1119.47 300.301 1120.48 291.099 1122.51 282.62C1124.53 274.14 1127.47 266.721 1131.32 260.361C1135.18 254.002 1140 249.087 1145.78 245.619C1151.66 242.053 1158.4 240.271 1166.01 240.271C1168.13 240.271 1170.4 240.463 1172.81 240.849C1175.31 241.138 1177.29 241.572 1178.73 242.15ZM1300.49 356.766C1300.49 353.49 1299.62 350.551 1297.89 347.95C1296.15 345.348 1292.88 342.987 1288.06 340.867C1283.34 338.651 1276.4 336.58 1267.25 334.652C1259.15 332.918 1251.68 330.75 1244.84 328.148C1238 325.547 1232.12 322.415 1227.21 318.753C1222.3 314.996 1218.44 310.611 1215.65 305.601C1212.95 300.494 1211.6 294.616 1211.6 287.967C1211.6 281.511 1213 275.441 1215.79 269.756C1218.59 263.975 1222.63 258.916 1227.93 254.58C1233.23 250.147 1239.69 246.678 1247.3 244.173C1254.91 241.572 1263.49 240.271 1273.03 240.271C1286.32 240.271 1297.74 242.439 1307.28 246.775C1316.92 251.111 1324.29 257.085 1329.4 264.697C1334.5 272.213 1337.06 280.692 1337.06 290.135H1298.9C1298.9 285.992 1297.94 282.234 1296.01 278.862C1294.18 275.489 1291.34 272.791 1287.48 270.768C1283.63 268.648 1278.76 267.588 1272.88 267.588C1267.58 267.588 1263.1 268.455 1259.44 270.19C1255.88 271.924 1253.18 274.188 1251.35 276.983C1249.52 279.777 1248.6 282.86 1248.6 286.233C1248.6 288.738 1249.08 291.003 1250.05 293.026C1251.11 294.953 1252.79 296.736 1255.11 298.374C1257.42 300.012 1260.55 301.506 1264.5 302.855C1268.55 304.204 1273.51 305.504 1279.39 306.757C1291.05 309.07 1301.21 312.153 1309.88 316.007C1318.65 319.765 1325.49 324.776 1330.41 331.039C1335.32 337.302 1337.78 345.3 1337.78 355.032C1337.78 361.97 1336.29 368.329 1333.3 374.111C1330.31 379.796 1325.98 384.758 1320.29 388.998C1314.61 393.237 1307.81 396.562 1299.91 398.971C1292.01 401.283 1283.1 402.44 1273.17 402.44C1258.81 402.44 1246.67 399.886 1236.75 394.779C1226.82 389.576 1219.31 383.024 1214.2 375.122C1209.09 367.125 1206.54 358.838 1206.54 350.262H1243.11C1243.4 356.333 1245.04 361.199 1248.02 364.86C1251.01 368.522 1254.77 371.172 1259.3 372.81C1263.92 374.351 1268.79 375.122 1273.89 375.122C1279.68 375.122 1284.54 374.351 1288.49 372.81C1292.44 371.172 1295.43 369.004 1297.45 366.306C1299.48 363.511 1300.49 360.332 1300.49 356.766ZM1419.79 273.225V459.676H1381.49V243.161H1416.9L1419.79 273.225ZM1520.24 319.765V322.8C1520.24 334.171 1518.89 344.722 1516.19 354.454C1513.59 364.089 1509.74 372.521 1504.63 379.747C1499.52 386.878 1493.16 392.467 1485.55 396.514C1478.04 400.464 1469.36 402.44 1459.54 402.44C1449.9 402.44 1441.52 400.609 1434.39 396.947C1427.26 393.189 1421.23 387.89 1416.32 381.048C1411.41 374.207 1407.46 366.257 1404.47 357.2C1401.58 348.046 1399.41 338.073 1397.96 327.281V317.597C1399.41 306.131 1401.58 295.724 1404.47 286.378C1407.46 276.935 1411.41 268.792 1416.32 261.951C1421.23 255.013 1427.21 249.666 1434.24 245.908C1441.37 242.15 1449.71 240.271 1459.25 240.271C1469.17 240.271 1477.89 242.15 1485.41 245.908C1493.02 249.666 1499.43 255.061 1504.63 262.096C1509.83 269.13 1513.74 277.513 1516.34 287.245C1518.94 296.977 1520.24 307.817 1520.24 319.765ZM1481.94 322.8V319.765C1481.94 312.828 1481.31 306.42 1480.06 300.542C1478.81 294.568 1476.88 289.365 1474.28 284.932C1471.68 280.403 1468.3 276.886 1464.16 274.381C1460.02 271.876 1455.01 270.623 1449.13 270.623C1443.25 270.623 1438.19 271.587 1433.95 273.514C1429.71 275.441 1426.24 278.187 1423.55 281.752C1420.85 285.318 1418.73 289.557 1417.19 294.472C1415.74 299.289 1414.78 304.637 1414.3 310.515V334.508C1415.16 341.638 1416.85 348.046 1419.36 353.731C1421.86 359.416 1425.52 363.945 1430.34 367.317C1435.25 370.69 1441.61 372.376 1449.42 372.376C1455.3 372.376 1460.31 371.075 1464.45 368.474C1468.59 365.872 1471.97 362.307 1474.57 357.778C1477.17 353.153 1479.05 347.853 1480.2 341.879C1481.36 335.905 1481.94 329.545 1481.94 322.8ZM1633.18 402.44C1621.33 402.44 1610.68 400.512 1601.24 396.658C1591.8 392.804 1583.75 387.456 1577.1 380.615C1570.55 373.677 1565.49 365.631 1561.92 356.477C1558.46 347.227 1556.72 337.302 1556.72 326.703V320.922C1556.72 308.877 1558.46 297.94 1561.92 288.112C1565.39 278.187 1570.31 269.66 1576.67 262.529C1583.03 255.399 1590.64 249.906 1599.5 246.052C1608.37 242.198 1618.15 240.271 1628.84 240.271C1639.93 240.271 1649.71 242.15 1658.19 245.908C1666.67 249.569 1673.75 254.772 1679.43 261.517C1685.12 268.262 1689.41 276.356 1692.3 285.799C1695.19 295.146 1696.63 305.504 1696.63 316.875V332.918H1574.07V306.612H1659.05V303.722C1658.86 297.651 1657.7 292.111 1655.58 287.1C1653.46 281.993 1650.19 277.946 1645.76 274.959C1641.32 271.876 1635.59 270.334 1628.56 270.334C1622.87 270.334 1617.91 271.587 1613.67 274.092C1609.53 276.501 1606.06 279.97 1603.26 284.499C1600.56 288.931 1598.54 294.231 1597.19 300.397C1595.84 306.564 1595.17 313.406 1595.17 320.922V326.703C1595.17 333.255 1596.04 339.326 1597.77 344.914C1599.6 350.503 1602.25 355.369 1605.72 359.512C1609.28 363.559 1613.52 366.739 1618.44 369.052C1623.45 371.268 1629.13 372.376 1635.49 372.376C1643.49 372.376 1650.72 370.834 1657.17 367.751C1663.73 364.571 1669.41 359.898 1674.23 353.731L1693.45 373.677C1690.18 378.495 1685.74 383.12 1680.16 387.552C1674.66 391.985 1668.01 395.598 1660.21 398.393C1652.4 401.091 1643.39 402.44 1633.18 402.44ZM1823.16 366.306V294.182C1823.16 288.883 1822.24 284.306 1820.41 280.452C1818.58 276.597 1815.79 273.61 1812.03 271.49C1808.27 269.371 1803.5 268.311 1797.72 268.311C1792.61 268.311 1788.13 269.178 1784.28 270.912C1780.52 272.647 1777.63 275.104 1775.61 278.284C1773.58 281.367 1772.57 284.932 1772.57 288.979H1734.27C1734.27 282.523 1735.81 276.405 1738.89 270.623C1741.98 264.745 1746.36 259.542 1752.05 255.013C1757.83 250.388 1764.72 246.775 1772.72 244.173C1780.81 241.572 1789.87 240.271 1799.89 240.271C1811.74 240.271 1822.29 242.294 1831.54 246.341C1840.89 250.292 1848.21 256.266 1853.51 264.264C1858.91 272.261 1861.6 282.331 1861.6 294.472V362.692C1861.6 370.497 1862.09 377.194 1863.05 382.783C1864.11 388.275 1865.65 393.045 1867.68 397.092V399.549H1828.8C1826.96 395.598 1825.57 390.588 1824.6 384.517C1823.64 378.35 1823.16 372.28 1823.16 366.306ZM1828.51 304.3L1828.8 326.992H1804.66C1798.68 326.992 1793.43 327.618 1788.9 328.871C1784.37 330.027 1780.67 331.762 1777.77 334.074C1774.88 336.29 1772.72 338.988 1771.27 342.168C1769.82 345.252 1769.1 348.769 1769.1 352.719C1769.1 356.574 1769.97 360.042 1771.7 363.126C1773.53 366.209 1776.14 368.666 1779.51 370.497C1782.98 372.232 1787.02 373.099 1791.65 373.099C1798.39 373.099 1804.27 371.75 1809.28 369.052C1814.29 366.257 1818.2 362.885 1820.99 358.934C1823.78 354.984 1825.28 351.226 1825.47 347.661L1836.46 364.138C1835.11 368.088 1833.08 372.28 1830.39 376.712C1827.69 381.145 1824.22 385.288 1819.98 389.142C1815.74 392.997 1810.63 396.176 1804.66 398.682C1798.68 401.187 1791.75 402.44 1783.84 402.44C1773.73 402.44 1764.67 400.416 1756.67 396.369C1748.67 392.322 1742.36 386.782 1737.74 379.747C1733.11 372.713 1730.8 364.716 1730.8 355.755C1730.8 347.468 1732.34 340.145 1735.43 333.785C1738.51 327.426 1743.09 322.078 1749.16 317.742C1755.23 313.309 1762.74 309.985 1771.7 307.769C1780.76 305.456 1791.12 304.3 1802.78 304.3H1828.51ZM1948.96 177.398V399.549H1910.8V177.398H1948.96ZM2046.96 243.161L1978.88 319.621L1942.02 357.055L1929.88 327.426L1958.36 291.581L2000.85 243.161H2046.96ZM2007.93 399.549L1959.51 326.703L1984.95 301.987L2052.16 399.549H2007.93Z" fill="black"/>
</svg>
